<?xml version="1.0" encoding="UTF-8" standalone="no"?>
<svg
   xmlns:dc="http://purl.org/dc/elements/1.1/"
   xmlns:cc="http://creativecommons.org/ns#"
   xmlns:rdf="http://www.w3.org/1999/02/22-rdf-syntax-ns#"
   xmlns:svg="http://www.w3.org/2000/svg"
   xmlns="http://www.w3.org/2000/svg"
   id="svg8"
   version="1.1"
   viewBox="0 0 34.660713 23.107143"
   height="23.107143mm"
   width="34.660713mm">
  <defs
     id="defs2" />
  <metadata
     id="metadata5">
    <rdf:RDF>
      <cc:Work
         rdf:about="">
        <dc:format>image/svg+xml</dc:format>
        <dc:type
           rdf:resource="http://purl.org/dc/dcmitype/StillImage" />
        <dc:title></dc:title>
      </cc:Work>
    </rdf:RDF>
  </metadata>
  <g
     transform="translate(205.30594,-208.79315)"
     id="layer1">
    <rect
       y="208.79315"
       x="-205.30594"
       height="23.107143"
       width="34.660713"
       id="rect815"
       style="fill:#d9d9d9;fill-opacity:1;stroke:none;stroke-width:0.04289259" />
    <g
       transform="matrix(0.26458333,0,0,0.26458333,-192.18259,216.37325)"
       id="g831">
      <path
         style="fill:none"
         d="M 0,0 H 24 V 24 H 0 Z"
         id="path817" />
      <path
         style="fill:#000000;fill-opacity:0.11614733;stroke-width:1.38265312"
         d="m 29.035714,7.9132653 h -4.38301 L 22.122449,5.1479592 h -8.295918 v 2.7653061 h 7.079183 l 2.530255,2.7653057 h 5.599745 V 27.270408 H 6.9132653 V 14.826531 H 4.1479592 v 12.443877 c 0,1.520919 1.2443878,2.765306 2.7653061,2.765306 H 29.035714 c 1.520919,0 2.765307,-1.244387 2.765307,-2.765306 V 10.678571 c 0,-1.5209179 -1.244388,-2.7653057 -2.765307,-2.7653057 z M 11.061225,18.97449 c 0,3.816122 3.097142,6.913265 6.913265,6.913265 3.816122,0 6.913265,-3.097143 6.913265,-6.913265 0,-3.816123 -3.097143,-6.913265 -6.913265,-6.913265 -3.816123,0 -6.913265,3.097142 -6.913265,6.913265 z m 6.913265,-4.147959 c 2.281377,0 4.147959,1.866581 4.147959,4.147959 0,2.281377 -1.866582,4.147959 -4.147959,4.147959 -2.281378,0 -4.147959,-1.866582 -4.147959,-4.147959 0,-2.281378 1.866581,-4.147959 4.147959,-4.147959 z M 6.9132653,7.9132653 H 11.061225 V 5.1479592 H 6.9132653 V 1 H 4.1479592 V 5.1479592 H 0 v 2.7653061 h 4.1479592 v 4.1479597 h 2.7653061 z"
         id="path819" />
    </g>
  </g>
</svg>
