<svg xmlns="http://www.w3.org/2000/svg" viewBox="0 0 170.981 154.701"><path d="M147.644 81.343c-2.928 1.69-30.879 1.69-33.806 0-2.928-1.69-16.903-25.896-16.903-29.277 0-3.38 13.975-27.586 16.903-29.277 2.927-1.69 30.878-1.69 33.806 0 2.927 1.69 16.903 25.897 16.903 29.277 0 3.38-13.976 27.587-16.903 29.277z" fill="#00bcda"/><path d="M111.113 143.38c-2.916 1.684-30.752 1.684-33.668 0-2.916-1.683-16.834-25.79-16.834-29.156 0-3.367 13.918-27.474 16.834-29.157 2.916-1.684 30.752-1.684 33.668 0 2.915 1.683 16.833 25.79 16.833 29.157 0 3.367-13.918 27.473-16.833 29.157z" fill="#18b9a7"/><path d="M28.82 39.345c-1.664.96-17.55.96-19.213 0C7.943 38.385 0 24.627 0 22.705c0-1.92 7.943-15.678 9.607-16.638 1.664-.961 17.55-.961 19.213 0 1.664.96 9.607 14.718 9.607 16.639 0 1.921-7.943 15.679-9.607 16.64z" fill="#5edbeb"/><path d="M165.927 78.215c-.875.505-9.231.505-10.107 0-.875-.506-5.053-7.743-5.053-8.753 0-1.011 4.178-8.248 5.053-8.753.876-.506 9.232-.506 10.107 0 .876.505 5.054 7.742 5.054 8.753 0 1.01-4.178 8.247-5.054 8.753z" fill="#18b9a7"/><path d="M83.989 85.15c-3.018 1.742-31.828 1.742-34.846 0-3.018-1.742-17.423-26.693-17.423-30.177 0-3.485 14.405-28.435 17.423-30.177 3.018-1.743 31.828-1.743 34.846 0 3.018 1.742 17.423 26.692 17.423 30.177 0 3.484-14.405 28.435-17.423 30.177z" fill="#ffd332"/><path d="M91.122 40.54c-1.664.961-17.55.961-19.214 0-1.664-.96-9.606-14.717-9.606-16.639 0-1.921 7.942-15.678 9.606-16.639 1.664-.96 17.55-.96 19.214 0 1.664.96 9.606 14.718 9.606 16.64 0 1.92-7.942 15.678-9.606 16.639z" fill="#008ca8"/><path d="M72.173 153.98c-1.664.961-17.55.961-19.213 0-1.664-.96-9.607-14.717-9.607-16.639 0-1.921 7.943-15.678 9.607-16.639 1.664-.96 17.55-.96 19.213 0 1.664.96 9.607 14.718 9.607 16.64 0 1.92-7.943 15.678-9.607 16.639z" fill="#a5005c"/><path d="M53.465 17.885c-.876.505-9.232.505-10.107 0-.876-.505-5.054-7.742-5.054-8.753 0-1.01 4.178-8.248 5.054-8.753.875-.505 9.231-.505 10.107 0 .875.505 5.053 7.742 5.053 8.753 0 1.01-4.178 8.248-5.053 8.753zM56.575 112.883c-.876.505-9.232.505-10.107 0-.876-.505-5.054-7.742-5.054-8.753 0-1.01 4.178-8.248 5.054-8.753.875-.505 9.231-.505 10.107 0 .875.505 5.053 7.742 5.053 8.753 0 1.01-4.178 8.248-5.053 8.753z" fill="#ffd332"/><text y="376.241" x="124.173" style="line-height:1.25;-inkscape-font-specification:Arial;text-align:center" font-weight="400" font-size="8.013" font-family="Arial" letter-spacing="0" word-spacing="0" text-anchor="middle" fill="#fff" stroke-width=".215" transform="translate(-29.724 -262.347)"><tspan style="-inkscape-font-specification:'Lucida Sans Unicode';text-align:center" y="376.241" x="124.173" font-family="Lucida Sans Unicode">dzikie</tspan></text><path d="M32.666 47.067c-.875.505-9.232.505-10.107 0-.876-.506-5.054-7.743-5.054-8.753 0-1.011 4.178-8.248 5.054-8.753.875-.506 9.232-.506 10.107 0 .875.505 5.053 7.742 5.053 8.753 0 1.01-4.178 8.247-5.053 8.753z" fill="#db2f89"/><text y="405.483" x="87.345" style="line-height:1.25" font-weight="400" font-size="16.026" font-family="sans-serif" letter-spacing="0" word-spacing="0" fill="#fff" stroke-width=".215" transform="translate(-29.724 -262.347)"><tspan style="-inkscape-font-specification:'Arial Bold'" y="405.483" x="87.345" font-weight="700" font-family="Arial">?</tspan></text><text y="290.735" x="107.534" style="line-height:1.25" font-weight="400" font-size="12.7" font-family="sans-serif" letter-spacing="0" word-spacing="0" fill="#fff" stroke-width=".215" transform="translate(-29.724 -262.347)"><tspan style="-inkscape-font-specification:'Arial Bold'" y="290.735" x="107.534" font-weight="700" font-family="Arial">+</tspan></text><text y="310.71" x="161.244" style="line-height:1.25;-inkscape-font-specification:Arial;text-align:center" font-weight="400" font-size="8.013" font-family="Arial" letter-spacing="0" word-spacing="0" text-anchor="middle" fill="#fff" stroke-width=".215" transform="translate(-29.724 -262.347)"><tspan style="-inkscape-font-specification:'Lucida Sans Unicode';text-align:center" y="310.71" x="161.244" font-family="Lucida Sans Unicode">czynniki</tspan></text><text y="323.62" x="95.213" style="line-height:1.25;-inkscape-font-specification:Arial;text-align:center" font-weight="400" font-size="8.013" font-family="Arial" letter-spacing="0" word-spacing="0" text-anchor="middle" fill="#fff" stroke-width=".215" transform="translate(-29.724 -262.347)"><tspan style="-inkscape-font-specification:'Lucida Sans Unicode';text-align:center" y="323.62" x="95.213" font-family="Lucida Sans Unicode">łabędzie</tspan></text><text y="319.266" x="163.519" style="line-height:1.25;-inkscape-font-specification:Arial;text-align:center" font-weight="400" font-size="8.013" font-family="Arial" letter-spacing="0" word-spacing="0" text-anchor="middle" fill="#fff" stroke-width=".215" transform="translate(-29.724 -262.347)"><tspan style="-inkscape-font-specification:'Lucida Sans Unicode';text-align:center" y="319.266" x="163.519" font-family="Lucida Sans Unicode">kluczowe</tspan></text><path d="M122.004 105.167c-2.928 1.69-30.879 1.69-33.806 0-2.928-1.69-16.903-25.897-16.903-29.277 0-3.38 13.975-27.587 16.903-29.277 2.927-1.69 30.878-1.69 33.806 0 2.927 1.69 16.903 25.896 16.903 29.277 0 3.38-13.976 27.586-16.903 29.277z" fill="#db2f89"/><path d="M159.631 121.108c-1.664.96-17.55.96-19.213 0-1.664-.961-9.607-14.718-9.607-16.64 0-1.921 7.943-15.678 9.607-16.639 1.664-.96 17.55-.96 19.213 0 1.664.96 9.607 14.718 9.607 16.64 0 1.92-7.943 15.678-9.607 16.639z" fill="#5edbeb"/><text y="305.147" x="53.632" style="line-height:1.25" font-weight="400" font-size="12.7" font-family="sans-serif" letter-spacing="0" word-spacing="0" fill="#fff" stroke-width=".215" transform="translate(-29.724 -262.347)"><tspan style="-inkscape-font-specification:'Arial Bold'" y="305.147" x="53.632" font-weight="700" font-family="Arial">+</tspan></text><text y="347.756" x="126.701" style="line-height:1.25" font-weight="400" font-size="26.328" font-family="sans-serif" letter-spacing="0" word-spacing="0" fill="#fff" stroke-width=".353" transform="translate(-29.724 -262.347)"><tspan style="-inkscape-font-specification:'Arial Bold'" y="347.756" x="126.701" font-weight="700" font-family="Arial">?</tspan></text><text y="314.996" x="95.654" style="line-height:1.25;-inkscape-font-specification:Arial;text-align:center" font-weight="400" font-size="8.013" font-family="Arial" letter-spacing="0" word-spacing="0" text-anchor="middle" fill="#fff" stroke-width=".215" transform="translate(-29.724 -262.347)"><tspan style="-inkscape-font-specification:'Lucida Sans Unicode';text-align:center" y="314.996" x="95.654" font-family="Lucida Sans Unicode">czarne</tspan></text><text y="385.314" x="124.279" style="line-height:1.25;-inkscape-font-specification:Arial;text-align:center" font-weight="400" font-size="8.013" font-family="Arial" letter-spacing="0" word-spacing="0" text-anchor="middle" fill="#fff" stroke-width=".215" transform="translate(-29.724 -262.347)"><tspan style="-inkscape-font-specification:'Lucida Sans Unicode';text-align:center" y="385.314" x="124.279" font-family="Lucida Sans Unicode">karty</tspan></text></svg>