<?xml version="1.0" encoding="UTF-8" standalone="no"?>
<svg
   xmlns:dc="http://purl.org/dc/elements/1.1/"
   xmlns:cc="http://creativecommons.org/ns#"
   xmlns:rdf="http://www.w3.org/1999/02/22-rdf-syntax-ns#"
   xmlns:svg="http://www.w3.org/2000/svg"
   xmlns="http://www.w3.org/2000/svg"
   id="svg4560"
   version="1.1"
   viewBox="0 0 149.60327 147.61351"
   height="147.61351mm"
   width="149.60327mm">
  <defs
     id="defs4554" />
  <metadata
     id="metadata4557">
    <rdf:RDF>
      <cc:Work
         rdf:about="">
        <dc:format>image/svg+xml</dc:format>
        <dc:type
           rdf:resource="http://purl.org/dc/dcmitype/StillImage" />
        <dc:title></dc:title>
      </cc:Work>
    </rdf:RDF>
  </metadata>
  <g
     transform="translate(-18.936465,-50.080154)"
     id="layer1">
    <path
       id="path4529"
       d="m 93.739134,50.080154 c -41.299593,0 -74.802666,33.503068 -74.802669,74.802666 0,27.26806 14.597184,51.14225 36.408114,64.21108 l 0.04547,0.0274 a 3.2683754,3.2683754 0 0 0 -0.129191,0.90124 3.2683754,3.2683754 0 0 0 3.268017,3.26854 3.2683754,3.2683754 0 0 0 3.268536,-3.26854 3.2683754,3.2683754 0 0 0 -3.268536,-3.26853 3.2683754,3.2683754 0 0 0 -1.920296,0.6289 l -0.176215,-0.10542 C 35.238833,174.57857 21.053648,151.3956 21.053648,124.88282 c 2e-6,-40.155666 32.529825,-72.685483 72.685486,-72.685483 40.155666,0 72.685486,32.529817 72.685496,72.685483 0,31.86603 -20.4966,58.92699 -49.01562,68.74465 l -0.0155,0.006 -0.016,0.004 c -5.09379,1.92737 -9.00163,2.40037 -11.93157,1.47434 -2.92994,-0.92603 -5.10026,-3.22591 -6.78512,-7.46466 -3.254449,-8.18752 -4.228894,-23.35834 -4.140833,-46.49898 h 2.777093 l -3.768246,-8.05119 -3.928443,8.05119 h 2.803446 c -0.09613,23.18872 0.766482,38.41542 4.290179,47.28032 1.824505,4.59008 4.488084,7.55488 8.115264,8.70128 3.62435,1.1455 7.99516,0.49817 13.30668,-1.50998 29.34527,-10.11182 50.42378,-37.97019 50.42378,-70.73626 0,-41.299602 -33.501,-74.80267 -74.800594,-74.80267 z"
       style="color:#000000;font-style:normal;font-variant:normal;font-weight:normal;font-stretch:normal;font-size:medium;line-height:normal;font-family:sans-serif;font-variant-ligatures:normal;font-variant-position:normal;font-variant-caps:normal;font-variant-numeric:normal;font-variant-alternates:normal;font-feature-settings:normal;text-indent:0;text-align:start;text-decoration:none;text-decoration-line:none;text-decoration-style:solid;text-decoration-color:#000000;letter-spacing:normal;word-spacing:normal;text-transform:none;writing-mode:lr-tb;direction:ltr;text-orientation:mixed;dominant-baseline:auto;baseline-shift:baseline;text-anchor:start;white-space:normal;shape-padding:0;clip-rule:nonzero;display:inline;overflow:visible;visibility:visible;opacity:1;isolation:auto;mix-blend-mode:normal;color-interpolation:sRGB;color-interpolation-filters:linearRGB;solid-color:#000000;solid-opacity:1;vector-effect:none;fill:#c9c9c9;fill-opacity:1;fill-rule:nonzero;stroke:none;stroke-width:2.11666656;stroke-linecap:square;stroke-linejoin:miter;stroke-miterlimit:2;stroke-dasharray:none;stroke-dashoffset:0;stroke-opacity:1;paint-order:markers fill stroke;color-rendering:auto;image-rendering:auto;shape-rendering:auto;text-rendering:auto;enable-background:accumulate" />
  </g>
</svg>
